ISO-10303-21;
HEADER;
FILE_DESCRIPTION(('ViewDefinition [CoordinationView]'),'2;1');
FILE_NAME('','2026-08-19T21:57:43',(''),(''),'IfcOpenShell 0.8.5-1c5b825','IfcOpenShell 0.8.5-1c5b825','');
FILE_SCHEMA(('IFC4'));
ENDSEC;
DATA;
#1=IFCPROJECT('1GqzTB2xnAgfUWkX0EYL3X',$,'Musterprojekt Geb\X2\00E4\X0\udetechnik',$,$,$,$,(#10),#5);
#2=IFCSIUNIT(*,.LENGTHUNIT.,$,.METRE.);
#3=IFCSIUNIT(*,.AREAUNIT.,$,.SQUARE_METRE.);
#4=IFCSIUNIT(*,.VOLUMEUNIT.,$,.CUBIC_METRE.);
#5=IFCUNITASSIGNMENT((#4,#2,#3));
#6=IFCCARTESIANPOINT((0.,0.,0.));
#7=IFCDIRECTION((0.,0.,1.));
#8=IFCDIRECTION((1.,0.,0.));
#9=IFCAXIS2PLACEMENT3D(#6,#7,#8);
#10=IFCGEOMETRICREPRESENTATIONCONTEXT($,'Model',3,1.0000000000000001E-05,#9,$);
#11=IFCGEOMETRICREPRESENTATIONSUBCONTEXT('Body','Model',*,*,*,*,#10,$,.MODEL_VIEW.,$);
#12=IFCSITE('0vXxw_acLCIBpemkqBmjLC',$,'Areal',$,$,$,$,$,$,$,$,$,$,$);
#13=IFCBUILDING('2dcp5D$cjECQAB6iEL3tLb',$,'Musterprojekt Geb\X2\00E4\X0\udetechnik',$,$,$,$,$,$,$,$,$);
#14=IFCRELAGGREGATES('1mfX9L4Gn59w1HyA76T3wh',$,$,$,#1,(#12));
#15=IFCRELAGGREGATES('1uy36RCrLA2RRonaYSLoVL',$,$,$,#12,(#13));
#16=IFCBUILDINGSTOREY('3G1gbGlGL2TvWk6nyGz6Ea',$,'UG',$,$,#27,$,$,$,-3.1000000000000001);
#22=IFCRELAGGREGATES('0ofdn0gQz30Au_gtB6MQlT',$,$,$,#13,(#39,#50,#61,#16,#28));
#23=IFCCARTESIANPOINT((0.,0.,-3.1000000000000001));
#24=IFCDIRECTION((0.,0.,1.));
#25=IFCDIRECTION((1.,0.,0.));
#26=IFCAXIS2PLACEMENT3D(#23,#24,#25);
#27=IFCLOCALPLACEMENT($,#26);
#28=IFCBUILDINGSTOREY('3URGYmvZfC29BqDWVE7vnT',$,'EG',$,$,#38,$,$,$,0.);
#34=IFCCARTESIANPOINT((0.,0.,0.));
#35=IFCDIRECTION((0.,0.,1.));
#36=IFCDIRECTION((1.,0.,0.));
#37=IFCAXIS2PLACEMENT3D(#34,#35,#36);
#38=IFCLOCALPLACEMENT($,#37);
#39=IFCBUILDINGSTOREY('2ta3ljepj3Bg7qPdhs619c',$,'1. OG',$,$,#49,$,$,$,4.5999999999999996);
#45=IFCCARTESIANPOINT((0.,0.,4.5999999999999996));
#46=IFCDIRECTION((0.,0.,1.));
#47=IFCDIRECTION((1.,0.,0.));
#48=IFCAXIS2PLACEMENT3D(#45,#46,#47);
#49=IFCLOCALPLACEMENT($,#48);
#50=IFCBUILDINGSTOREY('0QGZclUl1E3ORCo7pi8VX1',$,'2. OG',$,$,#60,$,$,$,9.4000000000000004);
#56=IFCCARTESIANPOINT((0.,0.,9.4000000000000004));
#57=IFCDIRECTION((0.,0.,1.));
#58=IFCDIRECTION((1.,0.,0.));
#59=IFCAXIS2PLACEMENT3D(#56,#57,#58);
#60=IFCLOCALPLACEMENT($,#59);
#61=IFCBUILDINGSTOREY('0$yFS1pb17Y8JGV8lDUrhq',$,'Dach',$,$,#71,$,$,$,14.199999999999999);
#67=IFCCARTESIANPOINT((0.,0.,14.199999999999999));
#68=IFCDIRECTION((0.,0.,1.));
#69=IFCDIRECTION((1.,0.,0.));
#70=IFCAXIS2PLACEMENT3D(#67,#68,#69);
#71=IFCLOCALPLACEMENT($,#70);
#72=IFCCARTESIANPOINT((7.,12.300000000000001));
#73=IFCAXIS2PLACEMENT2D(#72,$);
#74=IFCRECTANGLEPROFILEDEF(.AREA.,$,#73,14.,24.600000000000001);
#75=IFCDIRECTION((0.,0.,1.));
#76=IFCEXTRUDEDAREASOLID(#74,$,#75,0.40000000000000002);
#77=IFCSHAPEREPRESENTATION(#11,'Body','SweptSolid',(#76));
#78=IFCSLAB('3upnX8$_j36BEsspv6aeKU',$,'Bodenplatte UG',$,$,#90,#84,$,.BASESLAB.);
#84=IFCPRODUCTDEFINITIONSHAPE($,$,(#77));
#85=IFCRELCONTAINEDINSPATIALSTRUCTURE('2uP0iJGXPDAAoz_MkMFGkW',$,$,$,(#191,#78,#510,#209,#337,#403,#227,#173),#16);
#86=IFCCARTESIANPOINT((-0.29999999999999999,-0.29999999999999999,-0.39999999999999991));
#87=IFCDIRECTION((0.,0.,1.));
#88=IFCDIRECTION((1.,0.,0.));
#89=IFCAXIS2PLACEMENT3D(#86,#87,#88);
#90=IFCLOCALPLACEMENT(#27,#89);
#91=IFCCARTESIANPOINT((6.7000000000000002,12.));
#92=IFCAXIS2PLACEMENT2D(#91,$);
#93=IFCRECTANGLEPROFILEDEF(.AREA.,$,#92,13.4,24.);
#94=IFCDIRECTION((0.,0.,1.));
#95=IFCEXTRUDEDAREASOLID(#93,$,#94,0.29999999999999999);
#96=IFCSHAPEREPRESENTATION(#11,'Body','SweptSolid',(#95));
#97=IFCSLAB('2UJFvI8RD47BciMd_cPTjI',$,'Decke unter EG',$,$,#109,#103,$,.FLOOR.);
#103=IFCPRODUCTDEFINITIONSHAPE($,$,(#96));
#104=IFCRELCONTAINEDINSPATIALSTRUCTURE('0SqpCywqrARelW4R$Ku$UZ',$,$,$,(#542,#526,#692,#353,#97),#28);
#105=IFCCARTESIANPOINT((0.,0.,-0.29999999999999999));
#106=IFCDIRECTION((0.,0.,1.));
#107=IFCDIRECTION((1.,0.,0.));
#108=IFCAXIS2PLACEMENT3D(#105,#106,#107);
#109=IFCLOCALPLACEMENT(#38,#108);
#110=IFCCARTESIANPOINT((6.7000000000000002,12.));
#111=IFCAXIS2PLACEMENT2D(#110,$);
#112=IFCRECTANGLEPROFILEDEF(.AREA.,$,#111,13.4,24.);
#113=IFCDIRECTION((0.,0.,1.));
#114=IFCEXTRUDEDAREASOLID(#112,$,#113,0.29999999999999999);
#115=IFCSHAPEREPRESENTATION(#11,'Body','SweptSolid',(#114));
#116=IFCSLAB('1oU25XfoP6_Roovg9qoiPZ',$,'Decke unter 1. OG',$,$,#128,#122,$,.FLOOR.);
#122=IFCPRODUCTDEFINITIONSHAPE($,$,(#115));
#123=IFCRELCONTAINEDINSPATIALSTRUCTURE('03oNNVJ1nEVQtNdMhbeCe4',$,$,$,(#116,#369,#640,#491,#475),#39);
#124=IFCCARTESIANPOINT((0.,0.,-0.29999999999999982));
#125=IFCDIRECTION((0.,0.,1.));
#126=IFCDIRECTION((1.,0.,0.));
#127=IFCAXIS2PLACEMENT3D(#124,#125,#126);
#128=IFCLOCALPLACEMENT(#49,#127);
#129=IFCCARTESIANPOINT((6.7000000000000002,12.));
#130=IFCAXIS2PLACEMENT2D(#129,$);
#131=IFCRECTANGLEPROFILEDEF(.AREA.,$,#130,13.4,24.);
#132=IFCDIRECTION((0.,0.,1.));
#133=IFCEXTRUDEDAREASOLID(#131,$,#132,0.29999999999999999);
#134=IFCSHAPEREPRESENTATION(#11,'Body','SweptSolid',(#133));
#135=IFCSLAB('3Y5WmhMvzDtf5VeoZe37EA',$,'Decke unter 2. OG',$,$,#147,#141,$,.FLOOR.);
#141=IFCPRODUCTDEFINITIONSHAPE($,$,(#134));
#142=IFCRELCONTAINEDINSPATIALSTRUCTURE('2ysfZqf_n17eInB1F_yxc2',$,$,$,(#427,#459,#443,#385,#666,#135),#50);
#143=IFCCARTESIANPOINT((0.,0.,-0.30000000000000071));
#144=IFCDIRECTION((0.,0.,1.));
#145=IFCDIRECTION((1.,0.,0.));
#146=IFCAXIS2PLACEMENT3D(#143,#144,#145);
#147=IFCLOCALPLACEMENT(#60,#146);
#148=IFCCARTESIANPOINT((7.,12.300000000000001));
#149=IFCAXIS2PLACEMENT2D(#148,$);
#150=IFCRECTANGLEPROFILEDEF(.AREA.,$,#149,14.,24.600000000000001);
#151=IFCDIRECTION((0.,0.,1.));
#152=IFCEXTRUDEDAREASOLID(#150,$,#151,0.34999999999999998);
#153=IFCSHAPEREPRESENTATION(#11,'Body','SweptSolid',(#152));
#154=IFCSLAB('1qBVy2FDv0bemszaUCOq3Z',$,'Dachdecke',$,$,#166,#160,$,.ROOF.);
#160=IFCPRODUCTDEFINITIONSHAPE($,$,(#153));
#161=IFCRELCONTAINEDINSPATIALSTRUCTURE('0qDoSc1EH4ef4xIzmiLzKP',$,$,$,(#563,#599,#154,#581,#617),#61);
#162=IFCCARTESIANPOINT((-0.29999999999999999,-0.29999999999999999,-0.34999999999999964));
#163=IFCDIRECTION((0.,0.,1.));
#164=IFCDIRECTION((1.,0.,0.));
#165=IFCAXIS2PLACEMENT3D(#162,#163,#164);
#166=IFCLOCALPLACEMENT(#71,#165);
#167=IFCCARTESIANPOINT((0.14999999999999999,12.300000000000001));
#168=IFCAXIS2PLACEMENT2D(#167,$);
#169=IFCRECTANGLEPROFILEDEF(.AREA.,$,#168,0.29999999999999999,24.600000000000001);
#170=IFCDIRECTION((0.,0.,1.));
#171=IFCEXTRUDEDAREASOLID(#169,$,#170,17.300000000000001);
#172=IFCSHAPEREPRESENTATION(#11,'Body','SweptSolid',(#171));
#173=IFCWALL('294pF4ECzA495dZ9sTukGX',$,'Aussenwand West',$,$,#184,#179,$,.SOLIDWALL.);
#179=IFCPRODUCTDEFINITIONSHAPE($,$,(#172));
#180=IFCCARTESIANPOINT((-0.29999999999999999,-0.29999999999999999,0.));
#181=IFCDIRECTION((0.,0.,1.));
#182=IFCDIRECTION((1.,0.,0.));
#183=IFCAXIS2PLACEMENT3D(#180,#181,#182);
#184=IFCLOCALPLACEMENT(#27,#183);
#185=IFCCARTESIANPOINT((0.14999999999999999,12.300000000000001));
#186=IFCAXIS2PLACEMENT2D(#185,$);
#187=IFCRECTANGLEPROFILEDEF(.AREA.,$,#186,0.29999999999999999,24.600000000000001);
#188=IFCDIRECTION((0.,0.,1.));
#189=IFCEXTRUDEDAREASOLID(#187,$,#188,17.300000000000001);
#190=IFCSHAPEREPRESENTATION(#11,'Body','SweptSolid',(#189));
#191=IFCWALL('0PoOLAT4vD_fCVkP4Y$iY8',$,'Aussenwand Ost',$,$,#202,#197,$,.SOLIDWALL.);
#197=IFCPRODUCTDEFINITIONSHAPE($,$,(#190));
#198=IFCCARTESIANPOINT((13.4,-0.29999999999999999,0.));
#199=IFCDIRECTION((0.,0.,1.));
#200=IFCDIRECTION((1.,0.,0.));
#201=IFCAXIS2PLACEMENT3D(#198,#199,#200);
#202=IFCLOCALPLACEMENT(#27,#201);
#203=IFCCARTESIANPOINT((6.7000000000000002,0.14999999999999999));
#204=IFCAXIS2PLACEMENT2D(#203,$);
#205=IFCRECTANGLEPROFILEDEF(.AREA.,$,#204,13.4,0.29999999999999999);
#206=IFCDIRECTION((0.,0.,1.));
#207=IFCEXTRUDEDAREASOLID(#205,$,#206,17.300000000000001);
#208=IFCSHAPEREPRESENTATION(#11,'Body','SweptSolid',(#207));
#209=IFCWALL('2tc3i4jPvCPgTmdoHzM7ZT',$,'Aussenwand Sued',$,$,#220,#215,$,.SOLIDWALL.);
#215=IFCPRODUCTDEFINITIONSHAPE($,$,(#208));
#216=IFCCARTESIANPOINT((0.,-0.29999999999999999,0.));
#217=IFCDIRECTION((0.,0.,1.));
#218=IFCDIRECTION((1.,0.,0.));
#219=IFCAXIS2PLACEMENT3D(#216,#217,#218);
#220=IFCLOCALPLACEMENT(#27,#219);
#221=IFCCARTESIANPOINT((6.7000000000000002,0.14999999999999999));
#222=IFCAXIS2PLACEMENT2D(#221,$);
#223=IFCRECTANGLEPROFILEDEF(.AREA.,$,#222,13.4,0.29999999999999999);
#224=IFCDIRECTION((0.,0.,1.));
#225=IFCEXTRUDEDAREASOLID(#223,$,#224,17.300000000000001);
#226=IFCSHAPEREPRESENTATION(#11,'Body','SweptSolid',(#225));
#227=IFCWALL('2ectpRBVvFVPaAdBR3Y_zG',$,'Aussenwand Nord',$,$,#238,#233,$,.SOLIDWALL.);
#233=IFCPRODUCTDEFINITIONSHAPE($,$,(#226));
#234=IFCCARTESIANPOINT((0.,24.,0.));
#235=IFCDIRECTION((0.,0.,1.));
#236=IFCDIRECTION((1.,0.,0.));
#237=IFCAXIS2PLACEMENT3D(#234,#235,#236);
#238=IFCLOCALPLACEMENT(#27,#237);
#239=IFCCARTESIANPOINT((6.7000000000000002,12.));
#240=IFCAXIS2PLACEMENT2D(#239,$);
#241=IFCRECTANGLEPROFILEDEF(.AREA.,$,#240,13.4,24.);
#242=IFCDIRECTION((0.,0.,1.));
#243=IFCEXTRUDEDAREASOLID(#241,$,#242,2.8000000000000003);
#244=IFCSHAPEREPRESENTATION(#11,'Body','SweptSolid',(#243));
#245=IFCSPACE('0$U8m5snz64ff1yPCMs4Ue',$,'Nutzflaeche UG',$,$,#257,#251,$,$,.SPACE.,$);
#251=IFCPRODUCTDEFINITIONSHAPE($,$,(#244));
#252=IFCRELAGGREGATES('2qGSKzRrf1fucD56Ps4q_1',$,$,$,#16,(#245));
#253=IFCCARTESIANPOINT((0.,0.,0.));
#254=IFCDIRECTION((0.,0.,1.));
#255=IFCDIRECTION((1.,0.,0.));
#256=IFCAXIS2PLACEMENT3D(#253,#254,#255);
#257=IFCLOCALPLACEMENT(#27,#256);
#258=IFCPROPERTYSET('2BPUcfKsL61feetjfn1WTv',$,'Pset_SpaceCommon',$,(#260,#261));
#259=IFCRELDEFINESBYPROPERTIES('15G_VhXk1DPRpjw6BvHUeO',$,$,$,(#245),#258);
#260=IFCPROPERTYSINGLEVALUE('GrossPlannedArea',$,IFCAREAMEASURE(321.60000000000002),$);
#261=IFCPROPERTYSINGLEVALUE('PubliclyAccessible',$,IFCBOOLEAN(.F.),$);
#262=IFCCARTESIANPOINT((6.7000000000000002,12.));
#263=IFCAXIS2PLACEMENT2D(#262,$);
#264=IFCRECTANGLEPROFILEDEF(.AREA.,$,#263,13.4,24.);
#265=IFCDIRECTION((0.,0.,1.));
#266=IFCEXTRUDEDAREASOLID(#264,$,#265,4.2999999999999998);
#267=IFCSHAPEREPRESENTATION(#11,'Body','SweptSolid',(#266));
#268=IFCSPACE('0JWAelNiHBjAOex0fRDiMx',$,'Nutzflaeche EG',$,$,#280,#274,$,$,.SPACE.,$);
#274=IFCPRODUCTDEFINITIONSHAPE($,$,(#267));
#275=IFCRELAGGREGATES('2IJvHZKlHF99g3MisdooQV',$,$,$,#28,(#268));
#276=IFCCARTESIANPOINT((0.,0.,0.));
#277=IFCDIRECTION((0.,0.,1.));
#278=IFCDIRECTION((1.,0.,0.));
#279=IFCAXIS2PLACEMENT3D(#276,#277,#278);
#280=IFCLOCALPLACEMENT(#38,#279);
#281=IFCPROPERTYSET('1A1VS3HQ9BxwdmInfYSAdd',$,'Pset_SpaceCommon',$,(#283,#284));
#282=IFCRELDEFINESBYPROPERTIES('23oOXk7w5C6uxUyrlaz2wv',$,$,$,(#268),#281);
#283=IFCPROPERTYSINGLEVALUE('GrossPlannedArea',$,IFCAREAMEASURE(321.60000000000002),$);
#284=IFCPROPERTYSINGLEVALUE('PubliclyAccessible',$,IFCBOOLEAN(.F.),$);
#285=IFCCARTESIANPOINT((6.7000000000000002,12.));
#286=IFCAXIS2PLACEMENT2D(#285,$);
#287=IFCRECTANGLEPROFILEDEF(.AREA.,$,#286,13.4,24.);
#288=IFCDIRECTION((0.,0.,1.));
#289=IFCEXTRUDEDAREASOLID(#287,$,#288,4.5);
#290=IFCSHAPEREPRESENTATION(#11,'Body','SweptSolid',(#289));
#291=IFCSPACE('2tzcuv_Xj3igGb6BAgnxUR',$,'Nutzflaeche 1. OG',$,$,#303,#297,$,$,.SPACE.,$);
#297=IFCPRODUCTDEFINITIONSHAPE($,$,(#290));
#298=IFCRELAGGREGATES('3IxDu1afb53fBB9qyNg7rA',$,$,$,#39,(#291));
#299=IFCCARTESIANPOINT((0.,0.,0.));
#300=IFCDIRECTION((0.,0.,1.));
#301=IFCDIRECTION((1.,0.,0.));
#302=IFCAXIS2PLACEMENT3D(#299,#300,#301);
#303=IFCLOCALPLACEMENT(#49,#302);
#304=IFCPROPERTYSET('1eFvt6dIX1TgwQxyy5rHBt',$,'Pset_SpaceCommon',$,(#306,#307));
#305=IFCRELDEFINESBYPROPERTIES('3Cn4q98gv6nRRR7B_pgagy',$,$,$,(#291),#304);
#306=IFCPROPERTYSINGLEVALUE('GrossPlannedArea',$,IFCAREAMEASURE(321.60000000000002),$);
#307=IFCPROPERTYSINGLEVALUE('PubliclyAccessible',$,IFCBOOLEAN(.F.),$);
#308=IFCCARTESIANPOINT((6.7000000000000002,12.));
#309=IFCAXIS2PLACEMENT2D(#308,$);
#310=IFCRECTANGLEPROFILEDEF(.AREA.,$,#309,13.4,24.);
#311=IFCDIRECTION((0.,0.,1.));
#312=IFCEXTRUDEDAREASOLID(#310,$,#311,4.4500000000000002);
#313=IFCSHAPEREPRESENTATION(#11,'Body','SweptSolid',(#312));
#314=IFCSPACE('3TVpsYjCf63guEdSL$BgBD',$,'Nutzflaeche 2. OG',$,$,#326,#320,$,$,.SPACE.,$);
#320=IFCPRODUCTDEFINITIONSHAPE($,$,(#313));
#321=IFCRELAGGREGATES('3zfECNKkn8pAhEHSldyZvg',$,$,$,#50,(#314));
#322=IFCCARTESIANPOINT((0.,0.,0.));
#323=IFCDIRECTION((0.,0.,1.));
#324=IFCDIRECTION((1.,0.,0.));
#325=IFCAXIS2PLACEMENT3D(#322,#323,#324);
#326=IFCLOCALPLACEMENT(#60,#325);
#327=IFCPROPERTYSET('077udY0151PgD1Mjzojpmy',$,'Pset_SpaceCommon',$,(#329,#330));
#328=IFCRELDEFINESBYPROPERTIES('2HKC90sVz0qxWeNgSmvSp4',$,$,$,(#314),#327);
#329=IFCPROPERTYSINGLEVALUE('GrossPlannedArea',$,IFCAREAMEASURE(321.60000000000002),$);
#330=IFCPROPERTYSINGLEVALUE('PubliclyAccessible',$,IFCBOOLEAN(.F.),$);
#331=IFCDISTRIBUTIONSYSTEM('2UwFAe_z5BBepb26KPfAOG',$,'Heizung HV/HR',$,$,$,.HEATING.);
#332=IFCRELSERVICESBUILDINGS('31JuO1OKn3RejMJbL7mLBc',$,'Heizung HV/HR',$,#331,(#13));
#333=IFCCIRCLEPROFILEDEF(.AREA.,$,$,0.025000000000000001);
#334=IFCDIRECTION((0.,0.,1.));
#335=IFCEXTRUDEDAREASOLID(#333,$,#334,13.700000000000001);
#336=IFCSHAPEREPRESENTATION(#11,'Body','SweptSolid',(#335));
#337=IFCPIPESEGMENT('253oeY5pb7a964GRmqzsv7',$,'Steigstrang Heizung DN50',$,$,#348,#343,$,.RIGIDSEGMENT.);
#343=IFCPRODUCTDEFINITIONSHAPE($,$,(#336));
#344=IFCCARTESIANPOINT((2.3999999999999999,12.,1.2000000000000002));
#345=IFCDIRECTION((0.,0.,1.));
#346=IFCDIRECTION((1.,0.,0.));
#347=IFCAXIS2PLACEMENT3D(#344,#345,#346);
#348=IFCLOCALPLACEMENT(#27,#347);
#349=IFCCIRCLEPROFILEDEF(.AREA.,$,$,0.016);
#350=IFCDIRECTION((0.,0.,1.));
#351=IFCEXTRUDEDAREASOLID(#349,$,#350,3.6899999999999999);
#352=IFCSHAPEREPRESENTATION(#11,'Body','SweptSolid',(#351));
#353=IFCPIPESEGMENT('35a52glVz3QhRzwca$F7O_',$,'Abgang Heizung DN32 auf +2.20',$,$,#364,#359,$,.RIGIDSEGMENT.);
#359=IFCPRODUCTDEFINITIONSHAPE($,$,(#352));
#360=IFCCARTESIANPOINT((2.3999999999999999,12.,2.2000000000000002));
#361=IFCDIRECTION((1.,0.,0.));
#362=IFCDIRECTION((0.,0.,1.));
#363=IFCAXIS2PLACEMENT3D(#360,#361,#362);
#364=IFCLOCALPLACEMENT(#38,#363);
#365=IFCCIRCLEPROFILEDEF(.AREA.,$,$,0.016);
#366=IFCDIRECTION((0.,0.,1.));
#367=IFCEXTRUDEDAREASOLID(#365,$,#366,3.6899999999999999);
#368=IFCSHAPEREPRESENTATION(#11,'Body','SweptSolid',(#367));
#369=IFCPIPESEGMENT('2fAV0b9G12Ruk_v$GvV66X',$,'Abgang Heizung DN32 auf +7.00',$,$,#380,#375,$,.RIGIDSEGMENT.);
#375=IFCPRODUCTDEFINITIONSHAPE($,$,(#368));
#376=IFCCARTESIANPOINT((2.3999999999999999,12.,2.4000000000000004));
#377=IFCDIRECTION((1.,0.,0.));
#378=IFCDIRECTION((0.,0.,1.));
#379=IFCAXIS2PLACEMENT3D(#376,#377,#378);
#380=IFCLOCALPLACEMENT(#49,#379);
#381=IFCCIRCLEPROFILEDEF(.AREA.,$,$,0.016);
#382=IFCDIRECTION((0.,0.,1.));
#383=IFCEXTRUDEDAREASOLID(#381,$,#382,3.6899999999999999);
#384=IFCSHAPEREPRESENTATION(#11,'Body','SweptSolid',(#383));
#385=IFCPIPESEGMENT('0d4X9JD4T3z9rWb2NuK0a8',$,'Abgang Heizung DN32 auf +11.80',$,$,#396,#391,$,.RIGIDSEGMENT.);
#391=IFCPRODUCTDEFINITIONSHAPE($,$,(#384));
#392=IFCCARTESIANPOINT((2.3999999999999999,12.,2.4000000000000004));
#393=IFCDIRECTION((1.,0.,0.));
#394=IFCDIRECTION((0.,0.,1.));
#395=IFCAXIS2PLACEMENT3D(#392,#393,#394);
#396=IFCLOCALPLACEMENT(#60,#395);
#397=IFCCARTESIANPOINT((1.175,0.59999999999999998));
#398=IFCAXIS2PLACEMENT2D(#397,$);
#399=IFCRECTANGLEPROFILEDEF(.AREA.,$,#398,2.3500000000000001,1.2);
#400=IFCDIRECTION((0.,0.,1.));
#401=IFCEXTRUDEDAREASOLID(#399,$,#400,1.3999999999999999);
#402=IFCSHAPEREPRESENTATION(#11,'Body','SweptSolid',(#401));
#403=IFCUNITARYEQUIPMENT('3uZFXsF0zBPO5eTBtAby4E',$,'W\X2\00E4\X0\rmepumpe Sole/Wasser',$,'W\X2\00E4\X0\rmepumpe Sole/Wasser',#414,#409,$,.USERDEFINED.);
#409=IFCPRODUCTDEFINITIONSHAPE($,$,(#402));
#410=IFCCARTESIANPOINT((1.22,11.4,0.));
#411=IFCDIRECTION((0.,0.,1.));
#412=IFCDIRECTION((1.,0.,0.));
#413=IFCAXIS2PLACEMENT3D(#410,#411,#412);
#414=IFCLOCALPLACEMENT(#27,#413);
#415=IFCPROPERTYSET('3SeF9ZFvr2wfwV3dxEF1vD',$,'IEM_Anlage',$,(#417,#418,#419));
#416=IFCRELDEFINESBYPROPERTIES('3BX9X6wHD5KwOOROobetVW',$,$,$,(#403),#415);
#417=IFCPROPERTYSINGLEVALUE('Gewerk',$,IFCLABEL('Heizung'),$);
#418=IFCPROPERTYSINGLEVALUE('Aufstellung',$,IFCLABEL('Technikraum UG'),$);
#419=IFCPROPERTYSINGLEVALUE('Auslegungsvorlauf',$,IFCREAL(38.600000000000001),$);
#420=IFCRELASSIGNSTOGROUP('0DY93$Hzz1kwGDc$3P3BtR',$,$,$,(#337,#353,#369,#385,#403),$,#331);
#421=IFCDISTRIBUTIONSYSTEM('2hNSSPXnn3URSYS1qasfnK',$,'L\X2\00FC\X0\ftung Zuluft',$,$,$,.VENTILATION.);
#422=IFCRELSERVICESBUILDINGS('3zrrtD_s98wvbB$INxDmlS',$,'L\X2\00FC\X0\ftung Zuluft',$,#421,(#13));
#423=IFCRECTANGLEPROFILEDEF(.AREA.,$,$,0.5,0.25);
#424=IFCDIRECTION((0.,0.,1.));
#425=IFCEXTRUDEDAREASOLID(#423,$,#424,11.27);
#426=IFCSHAPEREPRESENTATION(#11,'Body','SweptSolid',(#425));
#427=IFCDUCTSEGMENT('3YVqQNZkvFHvsIOhs9gUim',$,'Hauptkanal ZUL 500x250',$,$,#438,#433,$,.RIGIDSEGMENT.);
#433=IFCPRODUCTDEFINITIONSHAPE($,$,(#426));
#434=IFCCARTESIANPOINT((1.0600000000000001,12.,3.3399999999999999));
#435=IFCDIRECTION((1.,0.,0.));
#436=IFCDIRECTION((0.,0.,1.));
#437=IFCAXIS2PLACEMENT3D(#434,#435,#436);
#438=IFCLOCALPLACEMENT(#60,#437);
#439=IFCRECTANGLEPROFILEDEF(.AREA.,$,$,0.5,0.25);
#440=IFCDIRECTION((0.,0.,1.));
#441=IFCEXTRUDEDAREASOLID(#439,$,#440,2.4399999999999995);
#442=IFCSHAPEREPRESENTATION(#11,'Body','SweptSolid',(#441));
#443=IFCDUCTSEGMENT('3sNCl0obbARAoQBocD5Rab',$,'Abwurf ZUL 1',$,$,#454,#449,$,.RIGIDSEGMENT.);
#449=IFCPRODUCTDEFINITIONSHAPE($,$,(#442));
#450=IFCCARTESIANPOINT((8.1099999999999994,12.,3.3399999999999999));
#451=IFCDIRECTION((0.,0.,-1.));
#452=IFCDIRECTION((1.,0.,0.));
#453=IFCAXIS2PLACEMENT3D(#450,#451,#452);
#454=IFCLOCALPLACEMENT(#60,#453);
#455=IFCRECTANGLEPROFILEDEF(.AREA.,$,$,0.5,0.25);
#456=IFCDIRECTION((0.,0.,1.));
#457=IFCEXTRUDEDAREASOLID(#455,$,#456,2.4399999999999995);
#458=IFCSHAPEREPRESENTATION(#11,'Body','SweptSolid',(#457));
#459=IFCDUCTSEGMENT('1WUtgfm8rCQvOneR3jisxQ',$,'Abwurf ZUL 2',$,$,#470,#465,$,.RIGIDSEGMENT.);
#465=IFCPRODUCTDEFINITIONSHAPE($,$,(#458));
#466=IFCCARTESIANPOINT((10.789999999999999,12.,3.3399999999999999));
#467=IFCDIRECTION((0.,0.,-1.));
#468=IFCDIRECTION((1.,0.,0.));
#469=IFCAXIS2PLACEMENT3D(#466,#467,#468);
#470=IFCLOCALPLACEMENT(#60,#469);
#471=IFCRECTANGLEPROFILEDEF(.AREA.,$,$,0.5,0.25);
#472=IFCDIRECTION((0.,0.,1.));
#473=IFCEXTRUDEDAREASOLID(#471,$,#472,4.79);
#474=IFCSHAPEREPRESENTATION(#11,'Body','SweptSolid',(#473));
#475=IFCDUCTSEGMENT('3uvFEzJFjCMwSyqD8qFU8P',$,'Abwurf ZUL Strangende',$,$,#486,#481,$,.RIGIDSEGMENT.);
#481=IFCPRODUCTDEFINITIONSHAPE($,$,(#474));
#482=IFCCARTESIANPOINT((12.33,12.,8.1400000000000006));
#483=IFCDIRECTION((0.,0.,-1.));
#484=IFCDIRECTION((1.,0.,0.));
#485=IFCAXIS2PLACEMENT3D(#482,#483,#484);
#486=IFCLOCALPLACEMENT(#49,#485);
#487=IFCRECTANGLEPROFILEDEF(.AREA.,$,$,0.5,0.25);
#488=IFCDIRECTION((0.,0.,1.));
#489=IFCEXTRUDEDAREASOLID(#487,$,#488,2.5999999999999996);
#490=IFCSHAPEREPRESENTATION(#11,'Body','SweptSolid',(#489));
#491=IFCDUCTSEGMENT('0wgGaSXcHCYuDw4Kvr_p6Q',$,'Verteilung ZUL 2. OG',$,$,#502,#497,$,.RIGIDSEGMENT.);
#497=IFCPRODUCTDEFINITIONSHAPE($,$,(#490));
#498=IFCCARTESIANPOINT((12.33,12.,3.3500000000000005));
#499=IFCDIRECTION((-1.,0.,0.));
#500=IFCDIRECTION((0.,0.,1.));
#501=IFCAXIS2PLACEMENT3D(#498,#499,#500);
#502=IFCLOCALPLACEMENT(#49,#501);
#503=IFCRELASSIGNSTOGROUP('2NO59L5enC5Oltb1HEQdlJ',$,$,$,(#427,#443,#459,#475,#491),$,#421);
#504=IFCDISTRIBUTIONSYSTEM('3_iN3G_zHCsBziflu4ouGd',$,'Sanit\X2\00E4\X0\r KW/WW',$,$,$,.DOMESTICCOLDWATER.);
#505=IFCRELSERVICESBUILDINGS('2QNdpQ8K1D2uI63gjgkkie',$,'Sanit\X2\00E4\X0\r KW/WW',$,#504,(#13));
#506=IFCCIRCLEPROFILEDEF(.AREA.,$,$,0.02);
#507=IFCDIRECTION((0.,0.,1.));
#508=IFCEXTRUDEDAREASOLID(#506,$,#507,7.6600000000000001);
#509=IFCSHAPEREPRESENTATION(#11,'Body','SweptSolid',(#508));
#510=IFCPIPESEGMENT('16Le2jhvf3hP$LvF6FP2pA',$,'Steigstrang Sanit\X2\00E4\X0\r DN40',$,$,#521,#516,$,.RIGIDSEGMENT.);
#516=IFCPRODUCTDEFINITIONSHAPE($,$,(#509));
#517=IFCCARTESIANPOINT((11.93,12.,1.2000000000000002));
#518=IFCDIRECTION((0.,0.,1.));
#519=IFCDIRECTION((1.,0.,0.));
#520=IFCAXIS2PLACEMENT3D(#517,#518,#519);
#521=IFCLOCALPLACEMENT(#27,#520);
#522=IFCCIRCLEPROFILEDEF(.AREA.,$,$,0.012500000000000001);
#523=IFCDIRECTION((0.,0.,1.));
#524=IFCEXTRUDEDAREASOLID(#522,$,#523,2.5999999999999996);
#525=IFCSHAPEREPRESENTATION(#11,'Body','SweptSolid',(#524));
#526=IFCPIPESEGMENT('3UxKpVsXb0ovPX9iRdj2FH',$,'Abgang Sanit\X2\00E4\X0\r DN25 auf +1.38',$,$,#537,#532,$,.RIGIDSEGMENT.);
#532=IFCPRODUCTDEFINITIONSHAPE($,$,(#525));
#533=IFCCARTESIANPOINT((11.93,12.,1.3799999999999999));
#534=IFCDIRECTION((-1.,0.,0.));
#535=IFCDIRECTION((0.,0.,1.));
#536=IFCAXIS2PLACEMENT3D(#533,#534,#535);
#537=IFCLOCALPLACEMENT(#38,#536);
#538=IFCCIRCLEPROFILEDEF(.AREA.,$,$,0.012500000000000001);
#539=IFCDIRECTION((0.,0.,1.));
#540=IFCEXTRUDEDAREASOLID(#538,$,#539,2.1999999999999993);
#541=IFCSHAPEREPRESENTATION(#11,'Body','SweptSolid',(#540));
#542=IFCPIPESEGMENT('0Q085N3Ib0tgQZuovXRrqY',$,'Abgang Sanit\X2\00E4\X0\r DN25 auf +3.57',$,$,#553,#548,$,.RIGIDSEGMENT.);
#548=IFCPRODUCTDEFINITIONSHAPE($,$,(#541));
#549=IFCCARTESIANPOINT((11.93,12.,3.5699999999999998));
#550=IFCDIRECTION((-1.,0.,0.));
#551=IFCDIRECTION((0.,0.,1.));
#552=IFCAXIS2PLACEMENT3D(#549,#550,#551);
#553=IFCLOCALPLACEMENT(#38,#552);
#554=IFCRELASSIGNSTOGROUP('2rRV6oQ$1DruTy512LHh$i',$,$,$,(#510,#526,#542),$,#504);
#555=IFCDISTRIBUTIONSYSTEM('3sn7k$FdPDgw0DdE1PTcTv',$,'Photovoltaik',$,$,$,.ELECTRICAL.);
#556=IFCRELSERVICESBUILDINGS('3$VIxl9Af2aBJ8rFTUhmqT',$,'Photovoltaik',$,#555,(#13));
#557=IFCCARTESIANPOINT((4.,0.02));
#558=IFCAXIS2PLACEMENT2D(#557,$);
#559=IFCRECTANGLEPROFILEDEF(.AREA.,$,#558,8.,0.040000000000000001);
#560=IFCDIRECTION((0.,0.,1.));
#561=IFCEXTRUDEDAREASOLID(#559,$,#560,1.45);
#562=IFCSHAPEREPRESENTATION(#11,'Body','SweptSolid',(#561));
#563=IFCSOLARDEVICE('07_bKxHLj6iO4_eg60iAv2',$,'PV-Reihe 1',$,$,#574,#569,$,.SOLARPANEL.);
#569=IFCPRODUCTDEFINITIONSHAPE($,$,(#562));
#570=IFCCARTESIANPOINT((2.0299999999999998,8.,0.32000000000000028));
#571=IFCDIRECTION((0.8910065241883679,0.,0.45399049973954675));
#572=IFCDIRECTION((0.,1.,0.));
#573=IFCAXIS2PLACEMENT3D(#570,#571,#572);
#574=IFCLOCALPLACEMENT(#71,#573);
#575=IFCCARTESIANPOINT((4.,0.02));
#576=IFCAXIS2PLACEMENT2D(#575,$);
#577=IFCRECTANGLEPROFILEDEF(.AREA.,$,#576,8.,0.040000000000000001);
#578=IFCDIRECTION((0.,0.,1.));
#579=IFCEXTRUDEDAREASOLID(#577,$,#578,1.45);
#580=IFCSHAPEREPRESENTATION(#11,'Body','SweptSolid',(#579));
#581=IFCSOLARDEVICE('09W6KRASDFsPZIWqubUFq5',$,'PV-Reihe 2',$,$,#592,#587,$,.SOLARPANEL.);
#587=IFCPRODUCTDEFINITIONSHAPE($,$,(#580));
#588=IFCCARTESIANPOINT((4.46,8.,0.32000000000000028));
#589=IFCDIRECTION((0.8910065241883679,0.,0.45399049973954675));
#590=IFCDIRECTION((0.,1.,0.));
#591=IFCAXIS2PLACEMENT3D(#588,#589,#590);
#592=IFCLOCALPLACEMENT(#71,#591);
#593=IFCCARTESIANPOINT((4.,0.02));
#594=IFCAXIS2PLACEMENT2D(#593,$);
#595=IFCRECTANGLEPROFILEDEF(.AREA.,$,#594,8.,0.040000000000000001);
#596=IFCDIRECTION((0.,0.,1.));
#597=IFCEXTRUDEDAREASOLID(#595,$,#596,1.45);
#598=IFCSHAPEREPRESENTATION(#11,'Body','SweptSolid',(#597));
#599=IFCSOLARDEVICE('3vOHKXMwP6keWDM2r8b360',$,'PV-Reihe 3',$,$,#610,#605,$,.SOLARPANEL.);
#605=IFCPRODUCTDEFINITIONSHAPE($,$,(#598));
#606=IFCCARTESIANPOINT((6.8900000000000006,8.,0.32000000000000028));
#607=IFCDIRECTION((0.8910065241883679,0.,0.45399049973954675));
#608=IFCDIRECTION((0.,1.,0.));
#609=IFCAXIS2PLACEMENT3D(#606,#607,#608);
#610=IFCLOCALPLACEMENT(#71,#609);
#611=IFCCARTESIANPOINT((4.,0.02));
#612=IFCAXIS2PLACEMENT2D(#611,$);
#613=IFCRECTANGLEPROFILEDEF(.AREA.,$,#612,8.,0.040000000000000001);
#614=IFCDIRECTION((0.,0.,1.));
#615=IFCEXTRUDEDAREASOLID(#613,$,#614,1.45);
#616=IFCSHAPEREPRESENTATION(#11,'Body','SweptSolid',(#615));
#617=IFCSOLARDEVICE('0arEkKfFPDmB$uvqIT_Yc0',$,'PV-Reihe 4',$,$,#628,#623,$,.SOLARPANEL.);
#623=IFCPRODUCTDEFINITIONSHAPE($,$,(#616));
#624=IFCCARTESIANPOINT((9.3200000000000003,8.,0.32000000000000028));
#625=IFCDIRECTION((0.8910065241883679,0.,0.45399049973954675));
#626=IFCDIRECTION((0.,1.,0.));
#627=IFCAXIS2PLACEMENT3D(#624,#625,#626);
#628=IFCLOCALPLACEMENT(#71,#627);
#629=IFCPROPERTYSET('1DIIeZqzz0axltRdKNVFpT',$,'IEM_Anlage',$,(#631,#632,#633,#634));
#630=IFCRELDEFINESBYPROPERTIES('32F8gab654geakuoSH$CW8',$,$,$,(#563),#629);
#631=IFCPROPERTYSINGLEVALUE('Gewerk',$,IFCLABEL('Energie'),$);
#632=IFCPROPERTYSINGLEVALUE('Planungsgrundlage',$,IFCLABEL('SIA 108'),$);
#633=IFCPROPERTYSINGLEVALUE('Neigung',$,IFCREAL(27.),$);
#634=IFCPROPERTYSINGLEVALUE('Reihen',$,IFCINTEGER(4),$);
#635=IFCRELASSIGNSTOGROUP('3FbB9ClyP1QBqD09GBhJO3',$,$,$,(#563,#581,#599,#617),$,#555);
#636=IFCRECTANGLEPROFILEDEF(.AREA.,$,$,0.16,0.16);
#637=IFCDIRECTION((0.,0.,1.));
#638=IFCEXTRUDEDAREASOLID(#636,$,#637,0.16);
#639=IFCSHAPEREPRESENTATION(#11,'Body','SweptSolid',(#638));
#640=IFCSENSOR('1P2AVqELf5kA80sOq8DGi8',$,'MP-H-01 Vorlauftemperatur',$,$,#651,#646,$,.TEMPERATURESENSOR.);
#646=IFCPRODUCTDEFINITIONSHAPE($,$,(#639));
#647=IFCCARTESIANPOINT((6.0899999999999999,12.,2.4000000000000004));
#648=IFCDIRECTION((0.,0.,1.));
#649=IFCDIRECTION((1.,0.,0.));
#650=IFCAXIS2PLACEMENT3D(#647,#648,#649);
#651=IFCLOCALPLACEMENT(#49,#650);
#652=IFCPROPERTYSET('38ant5sdfE9efcr6xnCOu4',$,'IEM_Messwerte',$,(#654,#655,#656,#657,#658,#659,#660,#661));
#653=IFCRELDEFINESBYPROPERTIES('345Isrr0nCaP$MEFSmVIjS',$,$,$,(#640),#652);
#654=IFCPROPERTYSINGLEVALUE('Messpunkt',$,IFCLABEL('MP-H-01'),$);
#655=IFCPROPERTYSINGLEVALUE('Gewerk',$,IFCLABEL('Heizung'),$);
#656=IFCPROPERTYSINGLEVALUE('Messgroesse',$,IFCLABEL('Vorlauftemperatur'),$);
#657=IFCPROPERTYSINGLEVALUE('Messwert',$,IFCREAL(38.600000000000001),$);
#658=IFCPROPERTYSINGLEVALUE('Einheit',$,IFCLABEL('\X2\00B0\X0\C'),$);
#659=IFCPROPERTYSINGLEVALUE('Messverfahren',$,IFCLABEL('Anlegef\X2\00FC\X0\hler PT100, Klasse A'),$);
#660=IFCPROPERTYSINGLEVALUE('Herkunft',$,IFCLABEL('Einregulierung vor der Abnahme'),$);
#661=IFCPROPERTYSINGLEVALUE('Beispielwert',$,IFCBOOLEAN(.T.),$);
#662=IFCRECTANGLEPROFILEDEF(.AREA.,$,$,0.16,0.16);
#663=IFCDIRECTION((0.,0.,1.));
#664=IFCEXTRUDEDAREASOLID(#662,$,#663,0.16);
#665=IFCSHAPEREPRESENTATION(#11,'Body','SweptSolid',(#664));
#666=IFCSENSOR('1EaZ7y0KrDIPFDcvaR0VF0',$,'MP-L-01 Volumenstrom',$,$,#677,#672,$,.FLOWSENSOR.);
#672=IFCPRODUCTDEFINITIONSHAPE($,$,(#665));
#673=IFCCARTESIANPOINT((12.33,12.,3.3399999999999999));
#674=IFCDIRECTION((0.,0.,1.));
#675=IFCDIRECTION((1.,0.,0.));
#676=IFCAXIS2PLACEMENT3D(#673,#674,#675);
#677=IFCLOCALPLACEMENT(#60,#676);
#678=IFCPROPERTYSET('0j$gsH_db26Q5fUOPOSGu7',$,'IEM_Messwerte',$,(#680,#681,#682,#683,#684,#685,#686,#687));
#679=IFCRELDEFINESBYPROPERTIES('3q9pvjp4DB9wAXusRRmX4U',$,$,$,(#666),#678);
#680=IFCPROPERTYSINGLEVALUE('Messpunkt',$,IFCLABEL('MP-L-01'),$);
#681=IFCPROPERTYSINGLEVALUE('Gewerk',$,IFCLABEL('L\X2\00FC\X0\ftung'),$);
#682=IFCPROPERTYSINGLEVALUE('Messgroesse',$,IFCLABEL('Volumenstrom'),$);
#683=IFCPROPERTYSINGLEVALUE('Messwert',$,IFCREAL(1450.),$);
#684=IFCPROPERTYSINGLEVALUE('Einheit',$,IFCLABEL('m\X2\00B3\X0\/h'),$);
#685=IFCPROPERTYSINGLEVALUE('Messverfahren',$,IFCLABEL('Fl\X2\00FC\X0\gelradanemometer, Netzmessung nach SN EN 12599'),$);
#686=IFCPROPERTYSINGLEVALUE('Herkunft',$,IFCLABEL('Einregulierung vor der Abnahme'),$);
#687=IFCPROPERTYSINGLEVALUE('Beispielwert',$,IFCBOOLEAN(.T.),$);
#688=IFCRECTANGLEPROFILEDEF(.AREA.,$,$,0.16,0.16);
#689=IFCDIRECTION((0.,0.,1.));
#690=IFCEXTRUDEDAREASOLID(#688,$,#689,0.16);
#691=IFCSHAPEREPRESENTATION(#11,'Body','SweptSolid',(#690));
#692=IFCSENSOR('2hGbLeD9z12ARAoZzZF0EL',$,'MP-S-01 Durchfluss',$,$,#703,#698,$,.FLOWSENSOR.);
#698=IFCPRODUCTDEFINITIONSHAPE($,$,(#691));
#699=IFCCARTESIANPOINT((9.3300000000000001,12.,1.3799999999999999));
#700=IFCDIRECTION((0.,0.,1.));
#701=IFCDIRECTION((1.,0.,0.));
#702=IFCAXIS2PLACEMENT3D(#699,#700,#701);
#703=IFCLOCALPLACEMENT(#38,#702);
#704=IFCPROPERTYSET('0NbACvADn00A3__cV5Lb$p',$,'IEM_Messwerte',$,(#706,#707,#708,#709,#710,#711,#712,#713));
#705=IFCRELDEFINESBYPROPERTIES('0wbuC1PRH6XwbUhcsJ3$lT',$,$,$,(#692),#704);
#706=IFCPROPERTYSINGLEVALUE('Messpunkt',$,IFCLABEL('MP-S-01'),$);
#707=IFCPROPERTYSINGLEVALUE('Gewerk',$,IFCLABEL('Sanit\X2\00E4\X0\r'),$);
#708=IFCPROPERTYSINGLEVALUE('Messgroesse',$,IFCLABEL('Durchfluss'),$);
#709=IFCPROPERTYSINGLEVALUE('Messwert',$,IFCREAL(12.),$);
#710=IFCPROPERTYSINGLEVALUE('Einheit',$,IFCLABEL('l/min'),$);
#711=IFCPROPERTYSINGLEVALUE('Messverfahren',$,IFCLABEL('Ultraschall-Clamp-on'),$);
#712=IFCPROPERTYSINGLEVALUE('Herkunft',$,IFCLABEL('Einregulierung vor der Abnahme'),$);
#713=IFCPROPERTYSINGLEVALUE('Beispielwert',$,IFCBOOLEAN(.T.),$);
#714=IFCPROPERTYSET('30Omy3It1ATeqTi7mcZWfj',$,'IEM_Plan',$,(#716,#717,#718,#719));
#715=IFCRELDEFINESBYPROPERTIES('2k9cnCQhrAIu3b54vZBlw0',$,$,$,(#1),#714);
#716=IFCPROPERTYSINGLEVALUE('Planbezeichnung',$,IFCLABEL('IEM-HLKS-101'),$);
#717=IFCPROPERTYSINGLEVALUE('Titel',$,IFCLABEL('Schnitt A\X2\2013\X0\A \X2\2014\X0\ Schema Heizung / L\X2\00FC\X0\ftung / Sanit\X2\00E4\X0\r'),$);
#718=IFCPROPERTYSINGLEVALUE('Buero',$,IFCLABEL('IEM AG \X2\2014\X0\ Energie- und Messtechnik, Thun / Bern'),$);
#719=IFCPROPERTYSINGLEVALUE('Hinweis',$,IFCLABEL('Schematischer Schnitt. Messwerte beispielhaft \X2\2014\X0\ im Projekt stammen sie aus der Einregulierung vor der Abnahme.'),$);
ENDSEC;
END-ISO-10303-21;
